<svg width="61" height="60" viewBox="0 0 61 60" fill="none" xmlns="http://www.w3.org/2000/svg">
<rect x="0.5" width="60" height="60" rx="16" fill="#DF4949"/>
<rect x="23.5" y="24" width="13" height="4" fill="white" fill-opacity="0.4"/>
<path fill-rule="evenodd" clip-rule="evenodd" d="M26.625 18H34.3375C37.725 18 40.4625 19.284 40.5 22.5478V40.7631C40.5 40.9671 40.45 41.1711 40.35 41.3511C40.1875 41.6391 39.9125 41.8551 39.575 41.9511C39.25 42.0471 38.8875 41.9991 38.5875 41.8311L30.4875 37.9432L22.375 41.8311C22.1888 41.9259 21.975 41.9871 21.7625 41.9871C21.0625 41.9871 20.5 41.4351 20.5 40.7631V22.5478C20.5 19.284 23.25 18 26.625 18ZM25.7719 27.144H35.1844C35.7219 27.144 36.1594 26.7228 36.1594 26.196C36.1594 25.668 35.7219 25.248 35.1844 25.248H25.7719C25.2344 25.248 24.7969 25.668 24.7969 26.196C24.7969 26.7228 25.2344 27.144 25.7719 27.144Z" fill="white"/>
</svg>
